#!OML:ASF X:\für Bonn\!DataBase\2005_08_11_Bastian_Final\c3d\Bastian.ASF
:FULLY-SPECIFIED
:DEGREES
139
root 23.9862 16.8223 -2.40934 348.167 -74.823 32.7721
lowerback 67.9992 -5.94772 16.9097
upperback 14.8249 1.59722 2.02497
thorax -3.25016 0.261023 -4.95875
lowerneck -5.45946 -9.43166 1.42225
upperneck -23.7932 -12.5538 7.54679
head -5.97092 -7.40647 2.62896
rclavicle 9.54166e-015 2.94201e-014
rhumerus 57.0099 -10.0992 -42.6659
rradius 15.6067
rwrist -2.72279
rhand -26.2268 -4.13473
rfingers 7.12502
rthumb 0.326655 -34.1142
lclavicle 9.54166e-015 2.94201e-014
lhumerus -6.81308 -29.598 85.6049
lradius 51.4224
lwrist 30.5353
lhand -14.3272 -12.1459
lfingers 7.12502
lthumb 11.8136 17.5009
rfemur -57.5523 -9.63744 18.0587
rtibia 53.9984
rfoot -8.79948 0.238681
rtoes 4.60612
lfemur -50.2332 2.69888 -33.4553
ltibia 32.422
lfoot 5.47588 -4.65088
ltoes -3.92509
140
root 23.9626 16.7988 -2.40418 347.866 -74.7117 33.6839
lowerback 68.318 -5.93126 16.7465
upperback 14.7241 1.59972 1.99972
thorax -3.37177 0.255705 -4.91162
lowerneck -5.32396 -9.41567 1.51507
upperneck -24.1566 -12.5307 7.54725
head -6.11849 -7.42243 2.644
rclavicle -1.27222e-014 2.22639e-014
rhumerus 57.3828 -10.6175 -42.6951
rradius 15.6535
rwrist -2.6881
rhand -26.4365 -4.09576
rfingers 7.12502
rthumb 0.124189 -34.0755
lclavicle -1.27222e-014 2.22639e-014
lhumerus -6.98174 -29.7031 85.7085
lradius 51.3648
lwrist 30.654
lhand -14.1811 -12.2485
lfingers 7.12502
lthumb 11.9545 17.3902
rfemur -58.3783 -9.60841 17.801
rtibia 54.4868
rfoot -9.0156 0.0793425
rtoes 4.32795
lfemur -51.0184 2.3689 -33.6867
ltibia 32.898
lfoot 5.24467 -4.58586
ltoes -4.37468
141
root 23.9391 16.7749 -2.39917 347.543 -74.607 34.6066
lowerback 68.6634 -5.92788 16.5802
upperback 14.5912 1.5941 1.93695
thorax -3.52845 0.248698 -4.90151
lowerneck -5.14967 -9.39182 1.66371
upperneck -24.5129 -12.495 7.53251
head -6.27623 -7.43435 2.64798
rclavicle -7.95139e-014 1.11319e-014
rhumerus 57.7042 -11.1004 -42.7707
rradius 15.6899
rwrist -2.60212
rhand -26.6602 -4.11311
rfingers 7.12502
rthumb -0.0918975 -34.0928
lclavicle -7.95139e-014 1.11319e-014
lhumerus -7.20673 -29.8443 85.7845
lradius 51.3305
lwrist 30.7117
lhand -14.0406 -12.2116
lfingers 7.12502
lthumb 12.09 17.4191
rfemur -59.2067 -9.57609 17.5389
rtibia 54.9842
rfoot -9.2134 -0.0836037
rtoes 4.26604
lfemur -51.7909 2.08524 -33.9386
ltibia 33.3749
lfoot 5.02921 -4.54059
ltoes -4.75439
142
root 23.9137 16.752 -2.39438 347.087 -74.4821 35.659
lowerback 68.983 -5.90634 16.364
upperback 14.4491 1.57598 1.88436
thorax -3.70496 0.232808 -4.85845
lowerneck -4.91254 -9.37842 1.74315
upperneck -24.8409 -12.4603 7.56279
head -6.42714 -7.44198 2.67811
rclavicle 6.36111e-015 -2.46493e-014
rhumerus 58.0066 -11.4787 -42.7617
rradius 15.6842
rwrist -2.71837
rhand -26.924 -4.05467
rfingers 7.12502
rthumb -0.346691 -34.0341
lclavicle 6.36111e-015 -2.46493e-014
lhumerus -7.57505 -29.9317 85.8992
lradius 51.4038
lwrist 30.7849
lhand -13.8673 -12.1773
lfingers 7.12502
lthumb 12.257 17.4435
rfemur -60.008 -9.53433 17.2021
rtibia 55.4837
rfoot -9.42182 -0.250835
rtoes 4.16385
lfemur -52.5426 1.78032 -34.223
ltibia 33.8553
lfoot 4.82271 -4.4949
ltoes -4.98361
143
root 23.8885 16.7282 -2.38929 346.637 -74.3426 36.6915
lowerback 69.2876 -5.8919 16.1431
upperback 14.3049 1.54534 1.8376
thorax -3.88547 0.210796 -4.80288
lowerneck -4.62526 -9.34316 1.82841
upperneck -25.1929 -12.3953 7.57195
head -6.5976 -7.4339 2.70461
rclavicle -1.04958e-013 -1.03368e-014
rhumerus 58.2798 -11.8226 -42.7568
rradius 15.7073
rwrist -2.75563
rhand -27.1816 -4.00282
rfingers 7.12502
rthumb -0.595516 -33.9817
lclavicle -1.04958e-013 -1.03368e-014
lhumerus -8.01937 -29.9589 86.0534
lradius 51.5609
lwrist 30.8159
lhand -13.658 -12.1514
lfingers 7.12502
lthumb 12.4588 17.4573
rfemur -60.7985 -9.52024 16.8743
rtibia 55.9834
rfoot -9.64699 -0.404873
rtoes 4.17254
lfemur -53.2771 1.4628 -34.5037
ltibia 34.3344
lfoot 4.59779 -4.4561
ltoes -5.32815
144
root 23.862 16.7047 -2.38441 346.396 -74.2339 37.4912
lowerback 69.6043 -5.88513 15.9676
upperback 14.1617 1.53311 1.79268
thorax -4.05524 0.197887 -4.76845
lowerneck -4.43749 -9.31876 1.8993
upperneck -25.4592 -12.3526 7.5708
head -6.72321 -7.43187 2.71984
rclavicle -9.22361e-014 -3.18055e-015
rhumerus 58.5435 -12.1465 -42.6908
rradius 15.7245
rwrist -2.90749
rhand -27.4214 -4.00249
rfingers 7.12502
rthumb -0.827057 -33.9806
lclavicle -9.22361e-014 -3.18055e-015
lhumerus -8.43737 -30.0278 86.1816
lradius 51.7129
lwrist 30.8471
lhand -13.5155 -12.1704
lfingers 7.12502
lthumb 12.5962 17.4299
rfemur -61.5549 -9.49096 16.6205
rtibia 56.4698
rfoot -9.85835 -0.572491
rtoes 3.8997
lfemur -54.0023 1.14668 -34.6915
ltibia 34.8206
lfoot 4.38255 -4.36451
ltoes -5.60972
145
root 23.8351 16.6818 -2.37907 346.21 -74.1132 38.223
lowerback 69.9087 -5.90228 15.8091
upperback 14.0084 1.50611 1.74189
thorax -4.23527 0.179351 -4.7415
lowerneck -4.13016 -9.28394 1.92435
upperneck -25.7968 -12.2747 7.6319
head -6.88574 -7.41505 2.77135
rclavicle -2.54444e-014 4.92986e-014
rhumerus 58.8062 -12.444 -42.6731
rradius 15.7452
rwrist -3.0417
rhand -27.6536 -4.00248
rfingers 7.12502
rthumb -1.05139 -33.9796
lclavicle -2.54444e-014 4.92986e-014
lhumerus -8.89326 -30.0593 86.3406
lradius 51.8346
lwrist 30.7761
lhand -13.4369 -12.2419
lfingers 7.12502
lthumb 12.672 17.3536
rfemur -62.2764 -9.44044 16.3437
rtibia 56.94
rfoot -10.0869 -0.767595
rtoes 3.81478
lfemur -54.7112 0.808657 -34.8492
ltibia 35.3225
lfoot 4.13159 -4.28963
ltoes -5.96106
146
root 23.8077 16.6596 -2.37433 346.013 -74.0114 38.9217
lowerback 70.2419 -5.90964 15.6498
upperback 13.8722 1.48623 1.69917
thorax -4.39234 0.163864 -4.7068
lowerneck -3.92781 -9.2588 1.93627
upperneck -26.0743 -12.2209 7.67535
head -7.01128 -7.40649 2.8105
rclavicle 9.54166e-015 -3.97569e-015
rhumerus 59.1047 -12.7725 -42.7047
rradius 15.7602
rwrist -3.08963
rhand -27.875 -4.01791
rfingers 7.12502
rthumb -1.26514 -33.9939
lclavicle 9.54166e-015 -3.97569e-015
lhumerus -9.29205 -30.1277 86.498
lradius 51.9474
lwrist 30.7654
lhand -13.403 -12.2887
lfingers 7.12502
lthumb 12.7047 17.3048
rfemur -62.9404 -9.38638 16.0906
rtibia 57.3891
rfoot -10.2806 -0.968338
rtoes 3.72897
lfemur -55.3835 0.459886 -34.9485
ltibia 35.8475
lfoot 3.86015 -4.13592
ltoes -5.98848
147
root 23.7795 16.6372 -2.3698 346.178 -73.9378 39.2373
lowerback 70.5637 -5.92464 15.5675
upperback 13.7226 1.51053 1.687
thorax -4.55152 0.16448 -4.68319
lowerneck -3.66025 -9.24177 1.90038
upperneck -26.3826 -12.1759 7.72079
head -7.15469 -7.3987 2.8637
rclavicle -7.95139e-014 -7.15625e-014
rhumerus 59.3912 -13.1068 -42.7603
rradius 15.7372
rwrist -3.09868
rhand -28.0803 -3.96806
rfingers 7.12502
rthumb -1.46349 -33.9428
lclavicle -7.95139e-014 -7.15625e-014
lhumerus -9.69976 -30.222 86.7053
lradius 51.9946
lwrist 30.6896
lhand -13.4084 -12.3396
lfingers 7.12502
lthumb 12.6995 17.2542
rfemur -63.5771 -9.30952 15.9485
rtibia 57.816
rfoot -10.5049 -1.16373
rtoes 3.53613
lfemur -56.0616 0.0865754 -34.9064
ltibia 36.3805
lfoot 3.59586 -3.94783
ltoes -6.22946
148
root 23.7513 16.6156 -2.36473 346.354 -73.875 39.5223
lowerback 70.8456 -5.9462 15.4916
upperback 13.6079 1.51481 1.66479
thorax -4.67302 0.160876 -4.66782
lowerneck -3.42049 -9.22928 1.81859
upperneck -26.6626 -12.1274 7.82209
head -7.27711 -7.38873 2.93784
rclavicle -5.08889e-014 3.97569e-015
rhumerus 59.6561 -13.396 -42.7365
rradius 15.7791
rwrist -3.21634
rhand -28.2735 -4.01122
rfingers 7.12502
rthumb -1.65002 -33.9846
lclavicle -5.08889e-014 3.97569e-015
lhumerus -10.0579 -30.2942 86.8823
lradius 52.0055
lwrist 30.6159
lhand -13.3708 -12.389
lfingers 7.12502
lthumb 12.7358 17.2026
rfemur -64.1732 -9.20753 15.7891
rtibia 58.2233
rfoot -10.7224 -1.38765
rtoes 3.54585
lfemur -56.7224 -0.300517 -34.8179
ltibia 36.9298
lfoot 3.31997 -3.7393
ltoes -6.1276
149
root 23.722 16.5952 -2.3601 346.524 -73.8041 39.7995
lowerback 71.1173 -5.96501 15.4423
upperback 13.5015 1.53689 1.64905
thorax -4.78035 0.166561 -4.6626
lowerneck -3.26875 -9.2174 1.77917
upperneck -26.8814 -12.0988 7.85194
head -7.37245 -7.38415 2.97522
rclavicle -9.54166e-015 -2.8625e-014
rhumerus 59.9303 -13.7719 -42.8194
rradius 15.7476
rwrist -3.14894
rhand -28.5066 -3.97042
rfingers 7.12502
rthumb -1.87521 -33.9419
lclavicle -9.54166e-015 -2.8625e-014
lhumerus -10.3656 -30.4253 87.0644
lradius 51.9912
lwrist 30.542
lhand -13.2702 -12.4416
lfingers 7.12502
lthumb 12.8328 17.144
rfemur -64.7426 -9.11862 15.6393
rtibia 58.6141
rfoot -10.9225 -1.61754
rtoes 3.39428
lfemur -57.3674 -0.65921 -34.7475
ltibia 37.4742
lfoot 3.04174 -3.54223
ltoes -5.72163
150
root 23.6919 16.5747 -2.35523 346.7 -73.7722 40.0561
lowerback 71.3545 -5.96126 15.3703
upperback 13.4349 1.54893 1.62753
thorax -4.84771 0.170597 -4.65428
lowerneck -3.09775 -9.2032 1.7227
upperneck -27.1516 -12.0601 7.91713
head -7.48529 -7.3789 3.03054
rclavicle 3.49861e-014 4.45278e-014
rhumerus 60.237 -14.0906 -42.8732
rradius 15.717
rwrist -3.15892
rhand -28.7857 -3.97056
rfingers 7.12502
rthumb -2.14479 -33.9395
lclavicle 3.49861e-014 4.45278e-014
lhumerus -10.5996 -30.5309 87.207
lradius 51.9291
lwrist 30.4561
lhand -13.2048 -12.4893
lfingers 7.12502
lthumb 12.8958 17.0923
rfemur -65.2883 -8.97465 15.4897
rtibia 58.9902
rfoot -11.1356 -1.87048
rtoes 3.15113
lfemur -57.9981 -0.966311 -34.67
ltibia 38.0161
lfoot 2.7615 -3.35207
ltoes -5.66788
